<?xml version="1.0" encoding="UTF-8" standalone="no"?>
<!-- Generator: Adobe Illustrator 23.0.1, SVG Export Plug-In . SVG Version: 6.00 Build 0)  -->

<svg
   version="1.1"
   id="Layer_1"
   x="0px"
   y="0px"
   viewBox="0 0 251 60.6"
   style="enable-background:new 0 0 251 60.6;"
   xml:space="preserve"
   sodipodi:docname="zegami-logo-small.svg"
   inkscape:export-filename="zegami-favicon.png"
   inkscape:export-xdpi="96"
   inkscape:export-ydpi="96"
   inkscape:version="1.3.2 (091e20e, 2023-11-25, custom)"
   xmlns:inkscape="http://www.inkscape.org/namespaces/inkscape"
   xmlns:sodipodi="http://sodipodi.sourceforge.net/DTD/sodipodi-0.dtd"
   xmlns:xlink="http://www.w3.org/1999/xlink"
   xmlns="http://www.w3.org/2000/svg"
   xmlns:svg="http://www.w3.org/2000/svg"><defs
   id="defs41" /><sodipodi:namedview
   id="namedview41"
   pagecolor="#ffffff"
   bordercolor="#000000"
   borderopacity="0.25"
   inkscape:showpageshadow="2"
   inkscape:pageopacity="0.0"
   inkscape:pagecheckerboard="0"
   inkscape:deskcolor="#d1d1d1"
   inkscape:zoom="17.432577"
   inkscape:cx="34.475684"
   inkscape:cy="42.87949"
   inkscape:window-width="3840"
   inkscape:window-height="2054"
   inkscape:window-x="-11"
   inkscape:window-y="-11"
   inkscape:window-maximized="1"
   inkscape:current-layer="Layer_1" />
<style
   type="text/css"
   id="style1">
	.st0{clip-path:url(#SVGID_2_);}
	.st1{fill:#D87EB2;}
	.st2{clip-path:url(#SVGID_4_);}
	.st3{fill:#AF7AB3;}
	.st4{clip-path:url(#SVGID_6_);}
	.st5{fill:#8E6AAC;}
	.st6{clip-path:url(#SVGID_8_);}
	.st7{fill:#7368A2;}
	.st8{clip-path:url(#SVGID_10_);}
	.st9{fill:#555C8D;}
	.st10{clip-path:url(#SVGID_12_);}
	.st11{fill:#3C4F68;}
	.st12{clip-path:url(#SVGID_14_);}
	.st13{clip-path:url(#SVGID_16_);}
	.st14{fill:#475273;}
	.st15{clip-path:url(#SVGID_18_);}
	.st16{fill:#26323E;}
	.st17{clip-path:url(#SVGID_20_);}
	.st18{fill:#6BBE9D;}
	.st19{clip-path:url(#SVGID_22_);}
	.st20{fill:#5FBA93;}
	.st21{clip-path:url(#SVGID_24_);}
	.st22{fill:#4CB170;}
	.st23{clip-path:url(#SVGID_26_);}
	.st24{fill:#549C56;}
	.st25{clip-path:url(#SVGID_28_);}
	.st26{fill:#475E3C;}
	.st27{clip-path:url(#SVGID_30_);}
	.st28{fill:#2F4531;}
	.st29{clip-path:url(#SVGID_32_);}
	.st30{fill:#2A3123;}
	.st31{clip-path:url(#SVGID_34_);}
	.st32{fill:#212921;}
	.st33{clip-path:url(#SVGID_36_);}
	.st34{fill:#1A252F;}
	.st35{fill:#010101;}
</style>
<title
   id="title1">Asset 1</title>
<g
   id="g2"
   inkscape:export-filename="g2.png"
   inkscape:export-xdpi="215.96428"
   inkscape:export-ydpi="215.96428">
	<defs
   id="defs1">
		<path
   id="SVGID_1_"
   d="M 2.6,22.3 C -2,37.4 6.5,53.5 21.6,57.7 36.7,62.3 52.8,53.8 57,38.7 61.6,23.6 53.1,7.5 38,3.3 35.4,2.3 32.4,2 29.8,2 17.7,1.9 6.2,9.8 2.6,22.3" />
	</defs>
	<clipPath
   id="SVGID_2_">
		<use
   xlink:href="#SVGID_1_"
   style="overflow:visible"
   id="use1" />
	</clipPath>
	<g
   class="st0"
   clip-path="url(#SVGID_2_)"
   id="g1">
		<path
   class="st1"
   d="m 56.7,20 c -6.20316,2.06772 -30.87015,10.234346 -32.701731,10.955878 -1.6,0.7 -1,3.3 0.7,2.6 C 39.498269,28.655878 32.4,31.1 47.2,26.2 c 3.3,-1.3 6.9,-2.3 10.2,-3.6 1.6,-0.7 1,-3.3 -0.7,-2.6"
   id="path1"
   sodipodi:nodetypes="cccccc" />
	</g>
</g>
<g
   id="g4">
	<defs
   id="defs2">
		<path
   id="SVGID_3_"
   d="M2.6,22.3c-4.6,15.1,3.9,31.2,19,35.4c15.1,4.6,31.2-3.9,35.4-19c4.6-15.1-3.9-31.2-19-35.4    c-2.6-1-5.6-1.3-8.2-1.3C17.7,1.9,6.2,9.8,2.6,22.3" />
	</defs>
	<clipPath
   id="SVGID_4_">
		<use
   xlink:href="#SVGID_3_"
   style="overflow:visible;"
   id="use2" />
	</clipPath>
	<g
   class="st2"
   clip-path="url(#SVGID_4_)"
   id="g3">
		<path
   class="st3"
   d="m 58.7,27.5 c -14.823654,0.962575 -27.016639,1.669959 -31.945945,2.26745 -1.6,0 -1.6,3 0,2.6 C 42.154055,31.36745 32.8,31.8 48.2,30.8 c 3.6,-0.3 7.2,-0.3 10.5,-0.7 1.6,0.1 1.6,-2.6 0,-2.6"
   id="path2"
   sodipodi:nodetypes="cccccc" />
	</g>
</g>
<g
   id="g6">
	<defs
   id="defs4">
		<path
   id="SVGID_5_"
   d="M2.6,22.3c-4.6,15.1,3.9,31.2,19,35.4c15.1,4.6,31.2-3.9,35.4-19c4.6-15.1-3.9-31.2-19-35.4    c-2.6-1-5.6-1.3-8.2-1.3C17.7,1.9,6.2,9.8,2.6,22.3" />
	</defs>
	<clipPath
   id="SVGID_6_">
		<use
   xlink:href="#SVGID_5_"
   style="overflow:visible;"
   id="use4" />
	</clipPath>
	<g
   class="st4"
   clip-path="url(#SVGID_6_)"
   id="g5">
		<path
   class="st5"
   d="M 58.4,35.4 C 37.54544,30.842381 35.20926,30.289346 28.773424,29.037934 c -1.6,-0.3 -2.6,2.3 -0.7,2.6 L 47.2,35.7 c 3.6,0.7 6.9,1.6 10.5,2.3 1.7,0.4 2.3,-2.3 0.7,-2.6"
   id="path4"
   sodipodi:nodetypes="cccccc" />
	</g>
</g>
<g
   id="g8">
	<defs
   id="defs6">
		<path
   id="SVGID_7_"
   d="M2.6,22.3c-4.6,15.1,3.9,31.2,19,35.4c15.1,4.6,31.2-3.9,35.4-19c4.6-15.1-3.9-31.2-19-35.4    c-2.6-1-5.6-1.3-8.2-1.3C17.7,1.9,6.2,9.8,2.6,22.3" />
	</defs>
	<clipPath
   id="SVGID_8_">
		<use
   xlink:href="#SVGID_7_"
   style="overflow:visible;"
   id="use6" />
	</clipPath>
	<g
   class="st6"
   clip-path="url(#SVGID_8_)"
   id="g7">
		<path
   class="st7"
   d="M 55.7,43 C 45.74942,37.47997 34.760177,31.464003 30.168783,29.237872 c -1.6,-1 -2.9,1.6 -1.3,2.3 C 42.668783,39.037872 31.2,32.8 44.9,40.3 c 3.3,1.6 6.2,3.3 9.5,4.9 1.7,1 3,-1.3 1.3,-2.2"
   id="path6"
   sodipodi:nodetypes="cccccc" />
	</g>
</g>
<g
   id="g10">
	<defs
   id="defs8">
		<path
   id="SVGID_9_"
   d="M2.6,22.3c-4.6,15.1,3.9,31.2,19,35.4c15.1,4.6,31.2-3.9,35.4-19c4.6-15.1-3.9-31.2-19-35.4    c-2.6-1-5.6-1.3-8.2-1.3C17.7,1.9,6.2,9.8,2.6,22.3" />
	</defs>
	<clipPath
   id="SVGID_10_">
		<use
   xlink:href="#SVGID_9_"
   style="overflow:visible;"
   id="use8" />
	</clipPath>
	<g
   class="st8"
   clip-path="url(#SVGID_10_)"
   id="g9">
		<path
   class="st9"
   d="M 51.5,49.5 C 38.556544,35.425832 22.786605,23.900689 10.2,9.5 c -1.3,-1.3 -3.3,0.7 -2,2 11.1,10.8 22.3,21.6 33.8,32.4 2.6,2.6 5.2,4.9 7.5,7.5 1.3,1.4 3.3,-0.6 2,-1.9"
   id="path8"
   sodipodi:nodetypes="cccccc" />
	</g>
</g>
<g
   id="g12">
	<defs
   id="defs10">
		<path
   id="SVGID_11_"
   d="M2.6,22.3c-4.6,15.1,3.9,31.2,19,35.4c15.1,4.6,31.2-3.9,35.4-19c4.6-15.1-3.9-31.2-19-35.4    c-2.6-1-5.6-1.3-8.2-1.3C17.7,1.9,6.2,9.8,2.6,22.3" />
	</defs>
	<clipPath
   id="SVGID_12_">
		<use
   xlink:href="#SVGID_11_"
   style="overflow:visible;"
   id="use10" />
	</clipPath>
	<g
   class="st10"
   clip-path="url(#SVGID_12_)"
   id="g11">
		<path
   class="st11"
   d="M22.9,58.4c4.6-15.1,8.9-29.9,13.5-45c1-3.3,2-6.9,3-10.2C40,1.6,37,1,36.7,2.6c-4.6,15.1-8.9,29.9-13.5,45    c-1,3.3-2,6.9-3,10.2C19.7,59.4,22.3,60,22.9,58.4"
   id="path10" />
	</g>
</g>
<g
   id="g14">
	<defs
   id="defs12">
		<path
   id="SVGID_13_"
   d="M2.6,22.3c-4.6,15.1,3.9,31.2,19,35.4c15.1,4.6,31.2-3.9,35.4-19c4.6-15.1-3.9-31.2-19-35.4    c-2.6-1-5.6-1.3-8.2-1.3C17.7,1.9,6.2,9.8,2.6,22.3" />
	</defs>
	<clipPath
   id="SVGID_14_">
		<use
   xlink:href="#SVGID_13_"
   style="overflow:visible;"
   id="use12" />
	</clipPath>
	<g
   class="st12"
   clip-path="url(#SVGID_14_)"
   id="g13">
		<path
   class="st11"
   d="M38.4,58c-3.9-15.1-7.9-30.2-11.8-45.3c-1-3.3-1.6-6.9-2.6-10.2c-0.3-1.6-3.3-1-2.6,0.7l11.8,45.3    c1,3.3,1.6,6.9,2.6,10.2C36.1,60.3,39,59.7,38.4,58"
   id="path12" />
	</g>
</g>
<g
   id="g16">
	<defs
   id="defs14">
		<path
   id="SVGID_15_"
   d="M2.6,22.3c-4.6,15.1,3.9,31.2,19,35.4c15.1,4.6,31.2-3.9,35.4-19c4.6-15.1-3.9-31.2-19-35.4    c-2.6-1-5.6-1.3-8.2-1.3C17.7,1.9,6.2,9.8,2.6,22.3" />
	</defs>
	<clipPath
   id="SVGID_16_">
		<use
   xlink:href="#SVGID_15_"
   style="overflow:visible;"
   id="use14" />
	</clipPath>
	<g
   class="st13"
   clip-path="url(#SVGID_16_)"
   id="g15">
		<path
   class="st14"
   d="M45.6,54.8L22,14.4c-1.6-3-3.6-6.2-5.3-9.2c-1-1.6-3.3,0-2.3,1.3L38,46.9c1.6,3,3.6,6.2,5.3,9.2    C43.9,57.7,46.6,56.1,45.6,54.8"
   id="path14" />
	</g>
</g>
<g
   id="g18">
	<defs
   id="defs16">
		<path
   id="SVGID_17_"
   d="M2.6,22.3c-4.6,15.1,3.9,31.2,19,35.4c15.1,4.6,31.2-3.9,35.4-19c4.6-15.1-3.9-31.2-19-35.4    c-2.6-1-5.6-1.3-8.2-1.3C17.7,1.9,6.2,9.8,2.6,22.3" />
	</defs>
	<clipPath
   id="SVGID_18_">
		<use
   xlink:href="#SVGID_17_"
   style="overflow:visible;"
   id="use16" />
	</clipPath>
	<g
   class="st15"
   clip-path="url(#SVGID_18_)"
   id="g17">
		<path
   class="st16"
   d="M30.8,59.4c0.3-15.7,0.7-31.2,1-46.9c0-3.6,0-7.2,0.3-10.8c0-1.6-2.6-1.6-2.6,0c-0.3,15.7-0.7,31.2-1,46.9    c0,3.6,0,7.2-0.3,10.8C27.9,61,30.8,61,30.8,59.4"
   id="path16" />
	</g>
</g>
<g
   id="g20">
	<defs
   id="defs18">
		<path
   id="SVGID_19_"
   d="M2.6,22.3c-4.6,15.1,3.9,31.2,19,35.4c15.1,4.6,31.2-3.9,35.4-19c4.6-15.1-3.9-31.2-19-35.4    c-2.6-1-5.6-1.3-8.2-1.3C17.7,1.9,6.2,9.8,2.6,22.3" />
	</defs>
	<clipPath
   id="SVGID_20_">
		<use
   xlink:href="#SVGID_19_"
   style="overflow:visible;"
   id="use18" />
	</clipPath>
	<g
   class="st17"
   clip-path="url(#SVGID_20_)"
   id="g19">
		<path
   class="st18"
   d="M29.2,32.1c-8.9,3-17.4,5.9-26.3,8.9c-1.6,0.7-2.3-2-0.7-2.6c9.2-3.3,18.7-6.2,27.9-9.5L29.2,32.1z"
   id="path18" />
	</g>
</g>
<g
   id="g22">
	<defs
   id="defs20">
		<path
   id="SVGID_21_"
   d="M2.6,22.3c-4.6,15.1,3.9,31.2,19,35.4c15.1,4.6,31.2-3.9,35.4-19c4.6-15.1-3.9-31.2-19-35.4    c-2.6-1-5.6-1.3-8.2-1.3C17.7,1.9,6.2,9.8,2.6,22.3" />
	</defs>
	<clipPath
   id="SVGID_22_">
		<use
   xlink:href="#SVGID_21_"
   style="overflow:visible;"
   id="use20" />
	</clipPath>
	<g
   class="st19"
   clip-path="url(#SVGID_22_)"
   id="g21">
		<path
   class="st20"
   d="M29.2,31.8c-9.5,0.6-18.7,1-27.9,1.6c-1.6,0-2-2.6,0-2.6c9.5-0.7,19.4-1,28.9-1.6L29.2,31.8z"
   id="path20" />
	</g>
</g>
<g
   id="g24">
	<defs
   id="defs22">
		<path
   id="SVGID_23_"
   d="M2.6,22.3c-4.6,15.1,3.9,31.2,19,35.4c15.1,4.6,31.2-3.9,35.4-19c4.6-15.1-3.9-31.2-19-35.4    c-2.6-1-5.6-1.3-8.2-1.3C17.7,1.9,6.2,9.8,2.6,22.3" />
	</defs>
	<clipPath
   id="SVGID_24_">
		<use
   xlink:href="#SVGID_23_"
   style="overflow:visible;"
   id="use22" />
	</clipPath>
	<g
   class="st21"
   clip-path="url(#SVGID_24_)"
   id="g23">
		<path
   class="st22"
   d="M29.2,31.8c-9.2-2-18.4-4.3-27.9-6.2c-1.6-0.3-1-3,0.7-2.6c9.2,2,18.7,4.3,27.9,6.2L29.2,31.8z"
   id="path22" />
	</g>
</g>
<g
   id="g26">
	<defs
   id="defs24">
		<path
   id="SVGID_25_"
   d="M2.6,22.3c-4.6,15.1,3.9,31.2,19,35.4c15.1,4.6,31.2-3.9,35.4-19c4.6-15.1-3.9-31.2-19-35.4    c-2.6-1-5.6-1.3-8.2-1.3C17.7,1.9,6.2,9.8,2.6,22.3" />
	</defs>
	<clipPath
   id="SVGID_26_">
		<use
   xlink:href="#SVGID_25_"
   style="overflow:visible;"
   id="use24" />
	</clipPath>
	<g
   class="st23"
   clip-path="url(#SVGID_26_)"
   id="g25">
		<path
   class="st24"
   d="M29.2,31.8C20.6,27.2,12.1,22.6,3.9,18c-1.6-1-0.3-3.3,1.3-2.3c8.2,4.6,16.7,8.9,24.9,13.5L29.2,31.8z"
   id="path24" />
	</g>
</g>
<g
   id="g28">
	<defs
   id="defs26">
		<path
   id="SVGID_27_"
   d="M2.6,22.3c-4.6,15.1,3.9,31.2,19,35.4c15.1,4.6,31.2-3.9,35.4-19c4.6-15.1-3.9-31.2-19-35.4    c-2.6-1-5.6-1.3-8.2-1.3C17.7,1.9,6.2,9.8,2.6,22.3" />
	</defs>
	<clipPath
   id="SVGID_28_">
		<use
   xlink:href="#SVGID_27_"
   style="overflow:visible;"
   id="use26" />
	</clipPath>
	<g
   class="st25"
   clip-path="url(#SVGID_28_)"
   id="g27">
		<path
   class="st26"
   d="M10.1,9.5c6.6,6.6,13.5,12.8,20,19.4l-1,3c-6.9-6.9-14.1-13.5-21-20.4C6.9,10.5,8.8,8.5,10.1,9.5"
   id="path26" />
	</g>
</g>
<g
   id="g30">
	<defs
   id="defs28">
		<path
   id="SVGID_29_"
   d="M2.6,22.3c-4.6,15.1,3.9,31.2,19,35.4c15.1,4.6,31.2-3.9,35.4-19c4.6-15.1-3.9-31.2-19-35.4    c-2.6-1-5.6-1.3-8.2-1.3C17.7,1.9,6.2,9.8,2.6,22.3" />
	</defs>
	<clipPath
   id="SVGID_30_">
		<use
   xlink:href="#SVGID_29_"
   style="overflow:visible;"
   id="use28" />
	</clipPath>
	<g
   class="st27"
   clip-path="url(#SVGID_30_)"
   id="g29">
		<path
   class="st28"
   d="M14.1,6.5c-1-1.6,1.6-3,2.3-1.3C21,13.1,25.6,21,30.2,28.8l-1,3.6C24.2,23.6,19,15.1,14.1,6.5"
   id="path28" />
	</g>
</g>
<g
   id="g32">
	<defs
   id="defs30">
		<path
   id="SVGID_31_"
   d="M2.6,22.3c-4.6,15.1,3.9,31.2,19,35.4c15.1,4.6,31.2-3.9,35.4-19c4.6-15.1-3.9-31.2-19-35.4    c-2.6-1-5.6-1.3-8.2-1.3C17.7,1.9,6.2,9.8,2.6,22.3" />
	</defs>
	<clipPath
   id="SVGID_32_">
		<use
   xlink:href="#SVGID_31_"
   style="overflow:visible;"
   id="use30" />
	</clipPath>
	<g
   class="st29"
   clip-path="url(#SVGID_32_)"
   id="g31">
		<path
   class="st30"
   d="M21.3,2.9c-0.3-1.6,2.3-2.6,2.6-0.7c2.3,8.5,4.3,17.1,6.6,25.3l-1.6,4.9C26.5,22.9,23.9,13.1,21.3,2.9"
   id="path30" />
	</g>
</g>
<g
   id="g34">
	<defs
   id="defs32">
		<path
   id="SVGID_33_"
   d="M2.6,22.3c-4.6,15.1,3.9,31.2,19,35.4c15.1,4.6,31.2-3.9,35.4-19c4.6-15.1-3.9-31.2-19-35.4    c-2.6-1-5.6-1.3-8.2-1.3C17.7,1.9,6.2,9.8,2.6,22.3" />
	</defs>
	<clipPath
   id="SVGID_34_">
		<use
   xlink:href="#SVGID_33_"
   style="overflow:visible;"
   id="use32" />
	</clipPath>
	<g
   class="st31"
   clip-path="url(#SVGID_34_)"
   id="g33">
		<path
   class="st32"
   d="M28.8,1.9c0-1.6,3-2,2.6,0c0,7.9-0.3,15.8-0.3,23.6l-3,9.2C28.5,23.6,28.8,12.8,28.8,1.9"
   id="path32" />
	</g>
</g>
<g
   id="g36">
	<defs
   id="defs34">
		<path
   id="SVGID_35_"
   d="M2.6,22.3c-4.6,15.1,3.9,31.2,19,35.4c15.1,4.6,31.2-3.9,35.4-19c4.6-15.1-3.9-31.2-19-35.4    c-2.6-1-5.6-1.3-8.2-1.3C17.7,1.9,6.2,9.8,2.6,22.3" />
	</defs>
	<clipPath
   id="SVGID_36_">
		<use
   xlink:href="#SVGID_35_"
   style="overflow:visible;"
   id="use34" />
	</clipPath>
	<g
   class="st33"
   clip-path="url(#SVGID_36_)"
   id="g35">
		<path
   class="st34"
   d="M22.9,58.4c4.6-15.1,8.9-29.9,13.5-45c1-3.3,2-6.9,3-10.2C40,1.6,37,1,36.7,2.6c-4.6,15.1-8.9,29.9-13.5,45    c-1,3.3-2,6.9-3,10.2C19.7,59.4,22.3,60,22.9,58.4"
   id="path34" />
	</g>
</g>
<path
   class="st35"
   d="M66.4,44.1v-0.6c0-0.5,0.5-1.4,1.6-2.7l17.4-21.3H68.5c-1.4,0-2.1-0.5-2.1-1.6v-0.4c0-1,0.7-1.6,2.1-1.6h20.4  c1.3,0,1.9,0.6,2,1.7v0.3c0,0.4-0.5,1.3-1.6,2.6L71.6,42.3h17.6c1.4,0,2.1,0.5,2.1,1.6v0.4c0,1-0.7,1.6-2.1,1.6H68.3  C67.1,45.8,66.4,45.3,66.4,44.1z"
   id="path36" />
<path
   class="st35"
   d="M94.4,31.1c0-4.5,1.4-8.3,4.2-11.3s6.4-4.5,10.7-4.5c4.2,0,7.6,1.4,10.1,4.1c2.5,2.7,3.8,6.4,3.8,10.9v0.4  c0.1,0.4-0.1,0.8-0.4,1.1c-0.4,0.2-0.8,0.3-1.3,0.3H98.5c0.2,3.2,1.3,5.9,3.4,7.9c2.1,2,4.7,3.1,7.9,3c4.6,0,8-1.8,10.2-5.3  c0-0.1,0.3-0.1,0.7,0.1c0.4,0.2,0.9,0.4,1.2,0.8c0.4,0.4,0.6,0.9,0.6,1.5c0,1.3-1.2,2.7-3.6,4.3s-5.4,2.4-9,2.4  c-4.5,0-8.2-1.4-11.1-4.3C95.8,39.4,94.4,35.7,94.4,31.1z M98.6,28.6H119c-0.2-3-1.2-5.3-2.9-7.1c-1.7-1.8-4-2.6-6.7-2.6  c-2.6-0.1-5.2,0.9-7.1,2.7C100.3,23.4,99,25.9,98.6,28.6L98.6,28.6z"
   id="path37" />
<path
   class="st35"
   d="M125.5,51c0-2.2,0.9-4,2.7-5.5c1.8-1.5,4.1-2.5,6.9-3.1c-0.9-0.7-1.4-1.8-1.3-2.9c0-1.1,0.5-2.2,1.3-3  c-2.2-0.7-4-2.1-5.4-3.9c-1.3-1.7-2-3.9-2-6.1c0-3,1.2-5.9,3.5-8c2.3-2.2,5.2-3.3,8.6-3.3c2.7,0,5.3,0.8,7.5,2.3l2-3.3  c0.9-1.2,1.8-1.9,2.9-1.9c0.5,0,0.9,0.2,1.3,0.4c0.3,0.2,0.6,0.5,0.8,0.9c0.1,0.3,0.2,0.5,0.2,0.5l-4.9,5.5c1.6,1.8,2.4,4.2,2.4,6.6  c0,3-1.2,5.8-3.5,7.8c-2.3,2.1-5.2,3.1-8.7,3.1c-0.5,0-1.1,0-1.6-0.1c-0.3,0.5-0.5,1-0.4,1.5c0,0.6,0.3,1.1,0.7,1.4  c0.2,0.2,0.5,0.3,0.8,0.5c0.4,0.2,0.8,0.3,1.2,0.4l1.5,0.4l1.9,0.5l2.2,0.5c5.9,1.5,8.8,4,8.8,7.8c0,2.8-1.3,5-4,6.5  c-2.7,1.6-6.4,2.4-11.2,2.4C130.2,59,125.5,56.4,125.5,51z M129.4,51c0,3.2,3.4,4.9,10.3,4.9c3.5,0,6.1-0.5,8.1-1.4  c1.9-1,2.9-2.3,2.9-4.1c0-0.5-0.1-0.9-0.3-1.4c-0.2-0.5-0.6-0.8-1-1.1c-0.4-0.3-0.9-0.6-1.3-0.8c-0.6-0.3-1.2-0.5-1.8-0.6l-1.9-0.5  l-2.1-0.6l-2-0.6c-3.1,0.2-5.6,0.8-7.7,1.9C130.5,47.7,129.4,49.1,129.4,51L129.4,51z M131.8,26.5c-0.1,2.1,0.8,4.1,2.3,5.5  c1.5,1.4,3.4,2.1,5.8,2.1c2.4,0,4.3-0.7,5.8-2.1c1.5-1.4,2.3-3.4,2.2-5.5c0.1-2.1-0.8-4.1-2.2-5.5c-1.5-1.5-3.5-2.2-5.9-2.2  c-2.4,0-4.3,0.7-5.7,2.1C132.5,22.3,131.8,24.2,131.8,26.5L131.8,26.5z"
   id="path38" />
<path
   class="st35"
   d="M157.2,38.2c0-3.4,1.7-5.9,5.1-7.5c3.4-1.6,8.6-2.5,15.6-2.6h0.6v-1c0-2.5-0.7-4.4-2.2-5.8  c-1.4-1.4-3.5-2.1-6.2-2c-4.4,0-7.6,1.8-9.5,5.5c0,0-0.2,0-0.5-0.1c-0.4-0.1-0.8-0.4-1.1-0.7c-0.4-0.4-0.6-1-0.6-1.5  c0-1.4,1.1-2.9,3.4-4.5c2.3-1.6,5.2-2.5,8.7-2.5c3.8,0,6.7,1,8.9,3.1c2.1,2.1,3.2,4.9,3.2,8.5v18.8c0,0-0.1,0.1-0.2,0.2  c-0.2,0.1-0.3,0.1-0.5,0.2c-0.2,0.1-0.5,0.1-0.7,0.1c-1.7,0-2.6-1.3-2.6-3.9V41c-2.5,3.7-6.3,5.5-11.1,5.5c-3.2,0-5.7-0.8-7.5-2.3  C158.1,42.8,157.2,40.8,157.2,38.2z M161.3,38.2c0,1.4,0.6,2.8,1.8,3.6c1.2,0.9,2.8,1.3,4.7,1.3c3.1,0,5.6-0.9,7.7-2.6  c2-1.6,3.1-4,3-6.6v-2.7l-1.7,0.1c-5.3,0.2-9.1,0.8-11.7,1.9C162.6,34.2,161.3,35.9,161.3,38.2L161.3,38.2z"
   id="path39" />
<path
   class="st35"
   d="M190.6,44.2V16.2c0,0,0.1-0.1,0.2-0.2c0.2-0.1,0.3-0.1,0.5-0.2c0.2-0.1,0.4-0.1,0.7-0.1c1.8,0,2.6,1.3,2.6,4  v0.8c2.4-3.5,5.5-5.3,9.4-5.2c4.9,0,8.2,2.1,9.9,6.4c1-1.9,2.5-3.5,4.3-4.7c1.9-1.2,4-1.8,6.2-1.7c3.7,0,6.6,1.1,8.6,3.2  s3,5.2,2.9,9.4v16.2c0,1.3-0.6,1.9-1.8,1.9h-0.4c-1.2,0-1.8-0.6-1.8-1.9v-16c0-6-2.6-9-7.7-9c-1.9,0-3.7,0.6-5.2,1.6  c-1.6,1.1-2.9,2.6-3.7,4.3v19c0,1.3-0.6,1.9-1.8,1.9h-0.4c-1.2,0-1.8-0.6-1.8-1.9V28.5c0-6.2-2.6-9.3-7.7-9.3  c-1.8,0-3.7,0.6-5.2,1.6c-1.6,1.1-2.9,2.6-3.7,4.3v19c0,1.3-0.6,1.9-1.8,1.9h-0.4C191.3,46.1,190.6,45.5,190.6,44.2z"
   id="path40" />
<path
   class="st35"
   d="M243.8,5.9c0-1.8,0.9-2.7,2.7-2.7c1.8,0,2.6,0.9,2.6,2.7c0,1.8-0.9,2.7-2.8,2.7C244.7,8.6,243.8,7.7,243.8,5.9  z M244.4,44.2V17.8c0-1.3,0.6-1.9,1.8-1.9h0.4c1.2,0,1.8,0.6,1.8,1.9v26.4c0,1.3-0.6,1.9-1.8,1.9h-0.4  C245,46.1,244.4,45.5,244.4,44.2L244.4,44.2z"
   id="path41" />
</svg>
