<?xml version="1.0" encoding="UTF-8" standalone="no"?>
<svg version="1.1" xmlns="http://www.w3.org/2000/svg" xmlns:xlink="http://www.w3.org/1999/xlink" viewBox="0 0 62 62" role="img" aria-label="Zegami">
  <title>Zegami</title>
  <style>
    .st1{fill:#D87EB2;}
    .st3{fill:#AF7AB3;}
    .st5{fill:#8E6AAC;}
    .st7{fill:#7368A2;}
    .st9{fill:#555C8D;}
    .st11{fill:#3C4F68;}
    .st14{fill:#475273;}
    .st16{fill:#26323E;}
    .st18{fill:#6BBE9D;}
    .st20{fill:#5FBA93;}
    .st22{fill:#4CB170;}
    .st24{fill:#549C56;}
    .st26{fill:#475E3C;}
    .st28{fill:#2F4531;}
    .st30{fill:#2A3123;}
    .st32{fill:#212921;}
    .st34{fill:#1A252F;}
  </style>
  <defs>
    <clipPath id="zgm-mark-clip">
      <path d="M2.6,22.3 C -2,37.4 6.5,53.5 21.6,57.7 36.7,62.3 52.8,53.8 57,38.7 61.6,23.6 53.1,7.5 38,3.3 35.4,2.3 32.4,2 29.8,2 17.7,1.9 6.2,9.8 2.6,22.3"/>
    </clipPath>
  </defs>
  <g clip-path="url(#zgm-mark-clip)">
    <path class="st1" d="m 56.7,20 c -6.20316,2.06772 -30.87015,10.234346 -32.701731,10.955878 -1.6,0.7 -1,3.3 0.7,2.6 C 39.498269,28.655878 32.4,31.1 47.2,26.2 c 3.3,-1.3 6.9,-2.3 10.2,-3.6 1.6,-0.7 1,-3.3 -0.7,-2.6"/>
    <path class="st3" d="m 58.7,27.5 c -14.823654,0.962575 -27.016639,1.669959 -31.945945,2.26745 -1.6,0 -1.6,3 0,2.6 C 42.154055,31.36745 32.8,31.8 48.2,30.8 c 3.6,-0.3 7.2,-0.3 10.5,-0.7 1.6,0.1 1.6,-2.6 0,-2.6"/>
    <path class="st5" d="M 58.4,35.4 C 37.54544,30.842381 35.20926,30.289346 28.773424,29.037934 c -1.6,-0.3 -2.6,2.3 -0.7,2.6 L 47.2,35.7 c 3.6,0.7 6.9,1.6 10.5,2.3 1.7,0.4 2.3,-2.3 0.7,-2.6"/>
    <path class="st7" d="M 55.7,43 C 45.74942,37.47997 34.760177,31.464003 30.168783,29.237872 c -1.6,-1 -2.9,1.6 -1.3,2.3 C 42.668783,39.037872 31.2,32.8 44.9,40.3 c 3.3,1.6 6.2,3.3 9.5,4.9 1.7,1 3,-1.3 1.3,-2.2"/>
    <path class="st9" d="M 51.5,49.5 C 38.556544,35.425832 22.786605,23.900689 10.2,9.5 c -1.3,-1.3 -3.3,0.7 -2,2 11.1,10.8 22.3,21.6 33.8,32.4 2.6,2.6 5.2,4.9 7.5,7.5 1.3,1.4 3.3,-0.6 2,-1.9"/>
    <path class="st11" d="M22.9,58.4c4.6-15.1,8.9-29.9,13.5-45c1-3.3,2-6.9,3-10.2C40,1.6,37,1,36.7,2.6c-4.6,15.1-8.9,29.9-13.5,45 c-1,3.3-2,6.9-3,10.2C19.7,59.4,22.3,60,22.9,58.4"/>
    <path class="st11" d="M38.4,58c-3.9-15.1-7.9-30.2-11.8-45.3c-1-3.3-1.6-6.9-2.6-10.2c-0.3-1.6-3.3-1-2.6,0.7l11.8,45.3 c1,3.3,1.6,6.9,2.6,10.2C36.1,60.3,39,59.7,38.4,58"/>
    <path class="st14" d="M45.6,54.8L22,14.4c-1.6-3-3.6-6.2-5.3-9.2c-1-1.6-3.3,0-2.3,1.3L38,46.9c1.6,3,3.6,6.2,5.3,9.2 C43.9,57.7,46.6,56.1,45.6,54.8"/>
    <path class="st16" d="M30.8,59.4c0.3-15.7,0.7-31.2,1-46.9c0-3.6,0-7.2,0.3-10.8c0-1.6-2.6-1.6-2.6,0c-0.3,15.7-0.7,31.2-1,46.9 c0,3.6,0,7.2-0.3,10.8C27.9,61,30.8,61,30.8,59.4"/>
    <path class="st18" d="M29.2,32.1c-8.9,3-17.4,5.9-26.3,8.9c-1.6,0.7-2.3-2-0.7-2.6c9.2-3.3,18.7-6.2,27.9-9.5L29.2,32.1z"/>
    <path class="st20" d="M29.2,31.8c-9.5,0.6-18.7,1-27.9,1.6c-1.6,0-2-2.6,0-2.6c9.5-0.7,19.4-1,28.9-1.6L29.2,31.8z"/>
    <path class="st22" d="M29.2,31.8c-9.2-2-18.4-4.3-27.9-6.2c-1.6-0.3-1-3,0.7-2.6c9.2,2,18.7,4.3,27.9,6.2L29.2,31.8z"/>
    <path class="st24" d="M29.2,31.8C20.6,27.2,12.1,22.6,3.9,18c-1.6-1-0.3-3.3,1.3-2.3c8.2,4.6,16.7,8.9,24.9,13.5L29.2,31.8z"/>
    <path class="st26" d="M10.1,9.5c6.6,6.6,13.5,12.8,20,19.4l-1,3c-6.9-6.9-14.1-13.5-21-20.4C6.9,10.5,8.8,8.5,10.1,9.5"/>
    <path class="st28" d="M14.1,6.5c-1-1.6,1.6-3,2.3-1.3C21,13.1,25.6,21,30.2,28.8l-1,3.6C24.2,23.6,19,15.1,14.1,6.5"/>
    <path class="st30" d="M21.3,2.9c-0.3-1.6,2.3-2.6,2.6-0.7c2.3,8.5,4.3,17.1,6.6,25.3l-1.6,4.9C26.5,22.9,23.9,13.1,21.3,2.9"/>
    <path class="st32" d="M28.8,1.9c0-1.6,3-2,2.6,0c0,7.9-0.3,15.8-0.3,23.6l-3,9.2C28.5,23.6,28.8,12.8,28.8,1.9"/>
    <path class="st34" d="M22.9,58.4c4.6-15.1,8.9-29.9,13.5-45c1-3.3,2-6.9,3-10.2C40,1.6,37,1,36.7,2.6c-4.6,15.1-8.9,29.9-13.5,45 c-1,3.3-2,6.9-3,10.2C19.7,59.4,22.3,60,22.9,58.4"/>
  </g>
</svg>
